<?xml version="1.0" encoding="UTF-8" standalone="no"?>
<!-- Created with Inkscape (http://www.inkscape.org/) -->

<svg
   width="210mm"
   height="297mm"
   viewBox="0 0 210 297"
   version="1.1"
   id="svg168"
   sodipodi:docname="glyph7.svg"
   inkscape:version="1.2.1 (9c6d41e410, 2022-07-14, custom)"
   xmlns:inkscape="http://www.inkscape.org/namespaces/inkscape"
   xmlns:sodipodi="http://sodipodi.sourceforge.net/DTD/sodipodi-0.dtd"
   xmlns="http://www.w3.org/2000/svg"
   xmlns:svg="http://www.w3.org/2000/svg">
  <sodipodi:namedview
     id="namedview170"
     pagecolor="#505050"
     bordercolor="#eeeeee"
     borderopacity="1"
     inkscape:showpageshadow="0"
     inkscape:pageopacity="0"
     inkscape:pagecheckerboard="0"
     inkscape:deskcolor="#505050"
     inkscape:document-units="mm"
     showgrid="false"
     inkscape:zoom="1.5411757"
     inkscape:cx="414.61854"
     inkscape:cy="699.46602"
     inkscape:window-width="1920"
     inkscape:window-height="1007"
     inkscape:window-x="0"
     inkscape:window-y="0"
     inkscape:window-maximized="1"
     inkscape:current-layer="layer1" />
  <defs
     id="defs165" />
  <g
     inkscape:label="Layer 1"
     inkscape:groupmode="layer"
     id="layer1">
    <path
       id="path498"
       style="fill:#000000;stroke-width:0.33548"
       d="M 87.480448 63.619373 L 87.480448 177.66461 A 43.605782 43.605782 0 0 0 53.90627 220.08889 A 43.605782 43.605782 0 0 0 97.511877 263.6945 A 43.605782 43.605782 0 0 0 141.118 220.08889 A 43.605782 43.605782 0 0 0 107.38414 177.62223 L 107.38414 63.619373 L 87.480448 63.619373 z M 98.027091 195.3674 A 24.549711 24.549711 0 0 1 122.5765 219.91733 A 24.549711 24.549711 0 0 1 98.027091 244.46673 A 24.549711 24.549711 0 0 1 73.477169 219.91733 A 24.549711 24.549711 0 0 1 98.027091 195.3674 z " />
  </g>
</svg>
