<?xml version="1.0" encoding="UTF-8" standalone="no"?>
<!-- Created with Inkscape (http://www.inkscape.org/) -->

<svg
   width="210mm"
   height="297mm"
   viewBox="0 0 210 297"
   version="1.1"
   id="svg660"
   inkscape:version="1.2.1 (9c6d41e410, 2022-07-14, custom)"
   sodipodi:docname="glyph3.svg"
   xmlns:inkscape="http://www.inkscape.org/namespaces/inkscape"
   xmlns:sodipodi="http://sodipodi.sourceforge.net/DTD/sodipodi-0.dtd"
   xmlns="http://www.w3.org/2000/svg"
   xmlns:svg="http://www.w3.org/2000/svg">
  <sodipodi:namedview
     id="namedview662"
     pagecolor="#505050"
     bordercolor="#eeeeee"
     borderopacity="1"
     inkscape:showpageshadow="0"
     inkscape:pageopacity="0"
     inkscape:pagecheckerboard="0"
     inkscape:deskcolor="#505050"
     inkscape:document-units="mm"
     showgrid="false"
     inkscape:zoom="1.5411757"
     inkscape:cx="400.99258"
     inkscape:cy="236.18333"
     inkscape:window-width="1920"
     inkscape:window-height="1007"
     inkscape:window-x="0"
     inkscape:window-y="0"
     inkscape:window-maximized="1"
     inkscape:current-layer="layer1" />
  <defs
     id="defs657" />
  <g
     inkscape:label="Layer 1"
     inkscape:groupmode="layer"
     id="layer1">
    <path
       id="rect422-7"
       style="fill:#000000;stroke-width:0.598385"
       d="M 34.569466 -92.76488 L 45.573962 -92.76488 A 52.039001 52.039001 0 0 0 96.692806 -50.2729 A 52.039001 52.039001 0 0 0 147.81113 -92.76488 L 257.1533 -92.76488 L 257.1533 -112.66858 L 147.65817 -112.66858 A 52.039001 52.039001 0 0 0 96.692806 -154.3513 A 52.039001 52.039001 0 0 0 45.726925 -112.66858 L 34.569466 -112.66858 L 34.569466 -92.76488 z M 66.010958 -92.76488 L 127.39843 -92.76488 C 125.02545 -85.185807 119.78175 -78.531685 112.67788 -74.43525 C 109.11301 -72.37958 105.31641 -71.071933 101.14008 -70.461849 C 98.892672 -70.133539 94.496061 -70.133539 92.248633 -70.461849 C 82.990442 -71.814308 75.045474 -76.83409 69.878939 -84.594836 C 68.192349 -87.128296 66.900882 -89.884122 66.010958 -92.76488 z M 66.246602 -112.66858 C 68.102333 -118.09049 71.577085 -123.21031 75.948336 -126.85892 C 80.822221 -130.92707 86.384458 -133.36977 92.751961 -134.23832 C 94.628119 -134.49424 99.146352 -134.45356 101.14008 -134.16235 C 113.24052 -132.3947 123.16372 -124.1641 127.13436 -112.66858 L 66.246602 -112.66858 z "
       transform="rotate(90)" />
  </g>
</svg>
