<?xml version="1.0" encoding="UTF-8" standalone="no"?>
<!-- Created with Inkscape (http://www.inkscape.org/) -->

<svg
   width="210mm"
   height="297mm"
   viewBox="0 0 210 297"
   version="1.1"
   id="svg305"
   sodipodi:docname="glyph10.svg"
   inkscape:version="1.2.1 (9c6d41e410, 2022-07-14, custom)"
   xmlns:inkscape="http://www.inkscape.org/namespaces/inkscape"
   xmlns:sodipodi="http://sodipodi.sourceforge.net/DTD/sodipodi-0.dtd"
   xmlns="http://www.w3.org/2000/svg"
   xmlns:svg="http://www.w3.org/2000/svg">
  <sodipodi:namedview
     id="namedview307"
     pagecolor="#505050"
     bordercolor="#eeeeee"
     borderopacity="1"
     inkscape:showpageshadow="0"
     inkscape:pageopacity="0"
     inkscape:pagecheckerboard="0"
     inkscape:deskcolor="#505050"
     inkscape:document-units="mm"
     showgrid="false"
     inkscape:zoom="1.0897757"
     inkscape:cx="395.49421"
     inkscape:cy="688.21498"
     inkscape:window-width="1920"
     inkscape:window-height="1007"
     inkscape:window-x="0"
     inkscape:window-y="0"
     inkscape:window-maximized="1"
     inkscape:current-layer="layer1" />
  <defs
     id="defs302" />
  <g
     inkscape:label="Layer 1"
     inkscape:groupmode="layer"
     id="layer1">
    <path
       id="rect111"
       style="fill:#ff0000;stroke-width:0.0840636"
       d="m 121.23715,153.09464 v 5.73887 a 25.133409,25.133409 0 0 0 -15.39255,-5.27844 25.133409,25.133409 0 0 0 -15.466653,5.33301 v -5.58726 h -9.68251 v 26.16833 h 0.04496 a 25.133409,25.133409 0 0 0 25.104203,24.35293 25.133409,25.133409 0 0 0 25.13335,-25.13366 25.133409,25.133409 0 0 0 -0.0583,-1.55525 v -24.03853 z m -15.50169,10.18883 a 15.308411,15.308411 0 0 1 15.30821,15.30822 15.308411,15.308411 0 0 1 -15.30821,15.30852 15.308411,15.308411 0 0 1 -15.308524,-15.30852 15.308411,15.308411 0 0 1 15.308524,-15.30822 z" />
  </g>
</svg>
